<svg xmlns="http://www.w3.org/2000/svg" xmlns:xlink="http://www.w3.org/1999/xlink" width="656" zoomAndPan="magnify" viewBox="0 0 492 179.249993" height="239" preserveAspectRatio="xMidYMid meet" version="1.0"><defs><g/><clipPath id="fc2733c7b1"><path d="M 1.023438 0 L 490.972656 0 L 490.972656 178.503906 L 1.023438 178.503906 Z M 1.023438 0 " clip-rule="nonzero"/></clipPath><clipPath id="46572a9707"><rect x="0" width="311" y="0" height="159"/></clipPath><clipPath id="e105350ea2"><rect x="0" width="163" y="0" height="44"/></clipPath></defs><g transform="matrix(1, 0, 0, 1, 28, 10)"><g clip-path="url(#46572a9707)"><g fill="#F7F7F5" fill-opacity="1"><g transform="translate(6.346447, 125.291802)"><g><path d="M 14.546875 -66.1875 C 12.648438 -66.1875 11.03125 -66.851562 9.6875 -68.1875 C 8.351562 -69.53125 7.6875 -71.148438 7.6875 -73.046875 C 7.6875 -74.941406 8.351562 -76.554688 9.6875 -77.890625 C 11.03125 -79.222656 12.648438 -79.890625 14.546875 -79.890625 C 16.441406 -79.890625 18.054688 -79.222656 19.390625 -77.890625 C 20.722656 -76.554688 21.390625 -74.941406 21.390625 -73.046875 C 21.390625 -71.148438 20.722656 -69.53125 19.390625 -68.1875 C 18.054688 -66.851562 16.441406 -66.1875 14.546875 -66.1875 Z M 20.125 0 L 8.859375 0 L 8.859375 -55.234375 L 20.125 -55.234375 Z M 20.125 0 "/></g></g></g><g fill="#F7F7F5" fill-opacity="1"><g transform="translate(35.439294, 125.291802)"><g><path d="M 44.171875 -55.234375 L 57.96875 -55.234375 L 35.203125 -33.40625 L 57.234375 0 L 44.90625 0 L 27.828125 -26.359375 L 20.03125 -18.875 L 20.03125 0 L 9.171875 0 L 9.171875 -77.265625 L 20.03125 -77.265625 L 20.03125 -32.15625 Z M 44.171875 -55.234375 "/></g></g></g><g fill="#F7F7F5" fill-opacity="1"><g transform="translate(94.362744, 125.291802)"><g><path d="M 14.546875 -66.1875 C 12.648438 -66.1875 11.03125 -66.851562 9.6875 -68.1875 C 8.351562 -69.53125 7.6875 -71.148438 7.6875 -73.046875 C 7.6875 -74.941406 8.351562 -76.554688 9.6875 -77.890625 C 11.03125 -79.222656 12.648438 -79.890625 14.546875 -79.890625 C 16.441406 -79.890625 18.054688 -79.222656 19.390625 -77.890625 C 20.722656 -76.554688 21.390625 -74.941406 21.390625 -73.046875 C 21.390625 -71.148438 20.722656 -69.53125 19.390625 -68.1875 C 18.054688 -66.851562 16.441406 -66.1875 14.546875 -66.1875 Z M 20.125 0 L 8.859375 0 L 8.859375 -55.234375 L 20.125 -55.234375 Z M 20.125 0 "/></g></g></g><g fill="#F7F7F5" fill-opacity="1"><g transform="translate(123.455592, 125.291802)"><g><path d="M 56.078125 -54.171875 C 53.128906 -54.171875 50.738281 -52.941406 48.90625 -50.484375 C 52.5625 -47.179688 54.390625 -42.722656 54.390625 -37.109375 C 54.390625 -32.117188 53.070312 -28.179688 50.4375 -25.296875 C 47.800781 -22.410156 44.691406 -20.40625 41.109375 -19.28125 C 37.523438 -18.164062 34.046875 -17.609375 30.671875 -17.609375 C 27.796875 -17.609375 25.09375 -17.921875 22.5625 -18.546875 C 20.9375 -17.984375 19.632812 -17.296875 18.65625 -16.484375 C 17.675781 -15.679688 17.1875 -14.894531 17.1875 -14.125 C 17.1875 -13.5625 17.394531 -13.070312 17.8125 -12.65625 C 18.375 -12.019531 19.65625 -11.539062 21.65625 -11.21875 C 23.664062 -10.90625 26.492188 -10.570312 30.140625 -10.21875 C 37.023438 -9.65625 42.050781 -9.023438 45.21875 -8.328125 C 50.132812 -7.273438 54 -5.484375 56.8125 -2.953125 C 59.625 -0.421875 61.03125 3.300781 61.03125 8.21875 C 61.03125 13.5625 58.640625 17.691406 53.859375 20.609375 C 49.078125 23.523438 42.226562 24.984375 33.3125 24.984375 C 23.96875 24.984375 16.90625 23.804688 12.125 21.453125 C 7.34375 19.097656 4.953125 15.25 4.953125 9.90625 C 4.953125 4.5 8.046875 0.25 14.234375 -2.84375 C 11.628906 -3.757812 9.78125 -4.921875 8.6875 -6.328125 C 7.601562 -7.734375 7.0625 -9.382812 7.0625 -11.28125 C 7.0625 -13.175781 7.816406 -14.984375 9.328125 -16.703125 C 10.835938 -18.429688 12.894531 -19.992188 15.5 -21.390625 C 9.726562 -24.765625 6.84375 -30.003906 6.84375 -37.109375 C 6.84375 -42.097656 8.160156 -46.03125 10.796875 -48.90625 C 13.429688 -51.789062 16.554688 -53.796875 20.171875 -54.921875 C 23.796875 -56.046875 27.296875 -56.609375 30.671875 -56.609375 C 34.253906 -56.609375 37.695312 -56.046875 41 -54.921875 C 44.726562 -60.960938 49.613281 -63.984375 55.65625 -63.984375 C 57.757812 -63.984375 59.972656 -63.5625 62.296875 -62.71875 L 62.296875 -52.171875 C 61.660156 -52.734375 60.765625 -53.207031 59.609375 -53.59375 C 58.453125 -53.976562 57.273438 -54.171875 56.078125 -54.171875 Z M 30.671875 -26.359375 C 34.253906 -26.359375 37.289062 -27.234375 39.78125 -28.984375 C 42.28125 -30.742188 43.53125 -33.453125 43.53125 -37.109375 C 43.53125 -40.753906 42.28125 -43.472656 39.78125 -45.265625 C 37.289062 -47.054688 34.253906 -47.953125 30.671875 -47.953125 C 27.085938 -47.953125 24.066406 -47.054688 21.609375 -45.265625 C 19.148438 -43.472656 17.921875 -40.753906 17.921875 -37.109375 C 17.921875 -33.453125 19.148438 -30.742188 21.609375 -28.984375 C 24.066406 -27.234375 27.085938 -26.359375 30.671875 -26.359375 Z M 35.09375 0.109375 C 34.601562 0.0351562 33.53125 -0.0664062 31.875 -0.203125 C 30.226562 -0.347656 28.109375 -0.523438 25.515625 -0.734375 C 21.859375 -0.109375 19.273438 1.046875 17.765625 2.734375 C 16.253906 4.421875 15.5 6.179688 15.5 8.015625 C 15.5 9.347656 16.144531 10.628906 17.4375 11.859375 C 18.738281 13.085938 20.742188 14.101562 23.453125 14.90625 C 26.160156 15.71875 29.476562 16.125 33.40625 16.125 C 38.539062 16.125 42.546875 15.367188 45.421875 13.859375 C 48.304688 12.347656 49.75 10.289062 49.75 7.6875 C 49.75 5.226562 48.550781 3.472656 46.15625 2.421875 C 43.769531 1.367188 40.082031 0.597656 35.09375 0.109375 Z M 35.09375 0.109375 "/></g></g></g><g fill="#F7F7F5" fill-opacity="1"><g transform="translate(187.333234, 125.291802)"><g><path d="M 54.390625 -16.65625 C 54.460938 -15.039062 54.65625 -13.738281 54.96875 -12.75 C 55.28125 -11.769531 55.945312 -10.890625 56.96875 -10.109375 C 57.988281 -9.335938 59.519531 -8.78125 61.5625 -8.4375 L 56.609375 1.375 C 53.441406 0.945312 50.960938 0.015625 49.171875 -1.421875 C 47.378906 -2.859375 46.132812 -4.773438 45.4375 -7.171875 C 41.988281 -1.472656 35.59375 1.375 26.25 1.375 C 21.257812 1.375 17.234375 0.492188 14.171875 -1.265625 C 11.117188 -3.023438 8.957031 -5.148438 7.6875 -7.640625 C 6.425781 -10.140625 5.796875 -12.546875 5.796875 -14.859375 C 5.796875 -18.648438 6.972656 -22.054688 9.328125 -25.078125 C 11.679688 -28.109375 15.210938 -30.21875 19.921875 -31.40625 C 22.304688 -32.039062 24.957031 -32.476562 27.875 -32.71875 C 30.789062 -32.96875 32.566406 -33.128906 33.203125 -33.203125 C 37.765625 -33.484375 41.347656 -33.90625 43.953125 -34.46875 C 43.816406 -38.1875 42.921875 -41.222656 41.265625 -43.578125 C 39.617188 -45.929688 36.582031 -47.109375 32.15625 -47.109375 C 29.195312 -47.109375 26.4375 -46.421875 23.875 -45.046875 C 21.3125 -43.679688 19.535156 -41.28125 18.546875 -37.84375 L 7.90625 -40.890625 C 9.3125 -45.535156 12.015625 -49.28125 16.015625 -52.125 C 20.023438 -54.96875 25.367188 -56.390625 32.046875 -56.390625 C 38.085938 -56.390625 43.210938 -54.828125 47.421875 -51.703125 C 51.640625 -48.578125 53.890625 -44.0625 54.171875 -38.15625 C 54.242188 -35.34375 54.296875 -31.582031 54.328125 -26.875 C 54.367188 -22.164062 54.390625 -18.757812 54.390625 -16.65625 Z M 44.171875 -25.609375 L 43.953125 -25.609375 L 44.171875 -25.515625 Z M 28.03125 -7.6875 C 30.144531 -7.6875 32.394531 -8.210938 34.78125 -9.265625 C 37.175781 -10.328125 39.285156 -12.191406 41.109375 -14.859375 C 42.929688 -17.535156 43.84375 -21.117188 43.84375 -25.609375 C 42.4375 -25.398438 40.257812 -25.15625 37.3125 -24.875 C 32.882812 -24.519531 29.226562 -24.078125 26.34375 -23.546875 C 23.46875 -23.023438 21.007812 -22.097656 18.96875 -20.765625 C 16.9375 -19.429688 15.921875 -17.566406 15.921875 -15.171875 C 15.921875 -12.296875 17.179688 -10.328125 19.703125 -9.265625 C 22.234375 -8.210938 25.007812 -7.6875 28.03125 -7.6875 Z M 28.03125 -7.6875 "/></g></g></g><g fill="#F7F7F5" fill-opacity="1"><g transform="translate(251.63258, 125.291802)"><g><path d="M 14.546875 -66.1875 C 12.648438 -66.1875 11.03125 -66.851562 9.6875 -68.1875 C 8.351562 -69.53125 7.6875 -71.148438 7.6875 -73.046875 C 7.6875 -74.941406 8.351562 -76.554688 9.6875 -77.890625 C 11.03125 -79.222656 12.648438 -79.890625 14.546875 -79.890625 C 16.441406 -79.890625 18.054688 -79.222656 19.390625 -77.890625 C 20.722656 -76.554688 21.390625 -74.941406 21.390625 -73.046875 C 21.390625 -71.148438 20.722656 -69.53125 19.390625 -68.1875 C 18.054688 -66.851562 16.441406 -66.1875 14.546875 -66.1875 Z M 20.125 0 L 8.859375 0 L 8.859375 -55.234375 L 20.125 -55.234375 Z M 20.125 0 "/></g></g></g><g fill="#F7F7F5" fill-opacity="1"><g transform="translate(280.779109, 125.291802)"><g/></g></g></g></g><g transform="matrix(1, 0, 0, 1, 313, 101)"><g clip-path="url(#e105350ea2)"><g fill="#F7F7F5" fill-opacity="1"><g transform="translate(0.176285, 32.756111)"><g><path d="M 20.296875 -27.328125 C 19.253906 -27.816406 18.097656 -28.234375 16.828125 -28.578125 C 15.554688 -28.929688 14.3125 -29.109375 13.09375 -29.109375 C 11.070312 -29.109375 9.453125 -28.609375 8.234375 -27.609375 C 7.023438 -26.609375 6.421875 -25.328125 6.421875 -23.765625 C 6.421875 -22.671875 6.742188 -21.738281 7.390625 -20.96875 C 8.046875 -20.207031 8.878906 -19.570312 9.890625 -19.0625 C 10.898438 -18.550781 12.203125 -17.992188 13.796875 -17.390625 C 15.523438 -16.753906 16.960938 -16.101562 18.109375 -15.4375 C 19.253906 -14.769531 20.21875 -13.863281 21 -12.71875 C 21.78125 -11.582031 22.171875 -10.117188 22.171875 -8.328125 C 22.171875 -6.617188 21.765625 -5.109375 20.953125 -3.796875 C 20.140625 -2.484375 19.003906 -1.460938 17.546875 -0.734375 C 16.085938 -0.015625 14.414062 0.34375 12.53125 0.34375 C 9.269531 0.34375 6.03125 -0.707031 2.8125 -2.8125 L 3.8125 -4.546875 C 4.882812 -3.742188 6.203125 -3.035156 7.765625 -2.421875 C 9.328125 -1.816406 10.84375 -1.515625 12.3125 -1.515625 C 13.613281 -1.515625 14.847656 -1.765625 16.015625 -2.265625 C 17.191406 -2.773438 18.148438 -3.539062 18.890625 -4.5625 C 19.628906 -5.59375 20 -6.832031 20 -8.28125 C 20 -9.644531 19.65625 -10.785156 18.96875 -11.703125 C 18.289062 -12.628906 17.4375 -13.375 16.40625 -13.9375 C 15.382812 -14.507812 14.09375 -15.082031 12.53125 -15.65625 C 10.800781 -16.289062 9.367188 -16.90625 8.234375 -17.5 C 7.109375 -18.09375 6.160156 -18.878906 5.390625 -19.859375 C 4.628906 -20.847656 4.25 -22.078125 4.25 -23.546875 C 4.25 -24.992188 4.617188 -26.273438 5.359375 -27.390625 C 6.097656 -28.503906 7.125 -29.367188 8.4375 -29.984375 C 9.75 -30.609375 11.21875 -30.9375 12.84375 -30.96875 C 14.226562 -30.96875 15.664062 -30.78125 17.15625 -30.40625 C 18.644531 -30.03125 19.96875 -29.550781 21.125 -28.96875 Z M 20.296875 -27.328125 "/></g></g></g><g fill="#F7F7F5" fill-opacity="1"><g transform="translate(24.939134, 32.756111)"><g><path d="M 22.59375 -30.796875 L 22.59375 -28.75 L 13.53125 -28.75 L 13.53125 0 L 11.40625 0 L 11.40625 -28.75 L 2.421875 -28.75 L 2.421875 -30.796875 Z M 22.59375 -30.796875 "/></g></g></g><g fill="#F7F7F5" fill-opacity="1"><g transform="translate(49.962211, 32.756111)"><g><path d="M 6.859375 -10.40625 C 6.859375 -8.644531 7.21875 -7.101562 7.9375 -5.78125 C 8.65625 -4.46875 9.65625 -3.457031 10.9375 -2.75 C 12.226562 -2.039062 13.6875 -1.6875 15.3125 -1.6875 C 16.957031 -1.6875 18.421875 -2.039062 19.703125 -2.75 C 20.992188 -3.457031 22.007812 -4.46875 22.75 -5.78125 C 23.488281 -7.101562 23.859375 -8.644531 23.859375 -10.40625 L 23.859375 -30.796875 L 25.9375 -30.796875 L 25.9375 -10.28125 C 25.9375 -8.082031 25.472656 -6.1875 24.546875 -4.59375 C 23.617188 -3.007812 22.351562 -1.789062 20.75 -0.9375 C 19.144531 -0.0820312 17.332031 0.34375 15.3125 0.34375 C 13.3125 0.34375 11.507812 -0.0820312 9.90625 -0.9375 C 8.300781 -1.789062 7.035156 -3.007812 6.109375 -4.59375 C 5.191406 -6.1875 4.734375 -8.082031 4.734375 -10.28125 L 4.734375 -30.796875 L 6.859375 -30.796875 Z M 6.859375 -10.40625 "/></g></g></g><g fill="#F7F7F5" fill-opacity="1"><g transform="translate(80.623059, 32.756111)"><g><path d="M 4.90625 -30.796875 L 12.484375 -30.796875 C 16.242188 -30.796875 19.359375 -30.03125 21.828125 -28.5 C 24.304688 -26.96875 26.113281 -25.015625 27.25 -22.640625 C 28.394531 -20.265625 28.96875 -17.789062 28.96875 -15.21875 C 28.96875 -12.21875 28.28125 -9.5625 26.90625 -7.25 C 25.539062 -4.9375 23.707031 -3.148438 21.40625 -1.890625 C 19.101562 -0.628906 16.625 0 13.96875 0 L 4.90625 0 Z M 13.40625 -2.03125 C 15.894531 -2.03125 18.15625 -2.570312 20.1875 -3.65625 C 22.226562 -4.75 23.84375 -6.300781 25.03125 -8.3125 C 26.21875 -10.320312 26.8125 -12.671875 26.8125 -15.359375 C 26.8125 -17.753906 26.265625 -19.972656 25.171875 -22.015625 C 24.085938 -24.054688 22.488281 -25.679688 20.375 -26.890625 C 18.269531 -28.109375 15.742188 -28.71875 12.796875 -28.71875 L 7.03125 -28.71875 L 7.03125 -2.03125 Z M 13.40625 -2.03125 "/></g></g></g><g fill="#F7F7F5" fill-opacity="1"><g transform="translate(112.541574, 32.756111)"><g><path d="M 7.03125 -30.796875 L 7.03125 0 L 4.90625 0 L 4.90625 -30.796875 Z M 7.03125 -30.796875 "/></g></g></g><g fill="#F7F7F5" fill-opacity="1"><g transform="translate(124.467643, 32.756111)"><g><path d="M 2.953125 -15.359375 C 2.953125 -18.191406 3.660156 -20.8125 5.078125 -23.21875 C 6.492188 -25.632812 8.398438 -27.554688 10.796875 -28.984375 C 13.203125 -30.421875 15.820312 -31.140625 18.65625 -31.140625 C 21.488281 -31.140625 24.117188 -30.421875 26.546875 -28.984375 C 28.972656 -27.554688 30.894531 -25.632812 32.3125 -23.21875 C 33.726562 -20.8125 34.4375 -18.191406 34.4375 -15.359375 C 34.4375 -12.523438 33.726562 -9.898438 32.3125 -7.484375 C 30.894531 -5.066406 28.972656 -3.15625 26.546875 -1.75 C 24.117188 -0.351562 21.488281 0.34375 18.65625 0.34375 C 15.789062 0.34375 13.15625 -0.332031 10.75 -1.6875 C 8.351562 -3.050781 6.453125 -4.929688 5.046875 -7.328125 C 3.648438 -9.734375 2.953125 -12.410156 2.953125 -15.359375 Z M 5.125 -15.3125 C 5.125 -12.851562 5.726562 -10.582031 6.9375 -8.5 C 8.15625 -6.414062 9.789062 -4.757812 11.84375 -3.53125 C 13.894531 -2.300781 16.148438 -1.6875 18.609375 -1.6875 C 21.097656 -1.6875 23.390625 -2.289062 25.484375 -3.5 C 27.578125 -4.71875 29.226562 -6.375 30.4375 -8.46875 C 31.65625 -10.570312 32.265625 -12.867188 32.265625 -15.359375 C 32.265625 -17.835938 31.648438 -20.125 30.421875 -22.21875 C 29.191406 -24.320312 27.535156 -25.992188 25.453125 -27.234375 C 23.378906 -28.484375 21.113281 -29.109375 18.65625 -29.109375 C 16.164062 -29.109375 13.878906 -28.476562 11.796875 -27.21875 C 9.710938 -25.957031 8.078125 -24.269531 6.890625 -22.15625 C 5.710938 -20.050781 5.125 -17.769531 5.125 -15.3125 Z M 5.125 -15.3125 "/></g></g></g></g></g><path stroke-linecap="round" transform="matrix(0.746875, 0, 0, 0.746875, 224.87383, 149.886365)" fill="none" stroke-linejoin="miter" d="M 3.50052 3.499429 L 103.636512 3.499429 " stroke="#574683" stroke-width="7" stroke-opacity="1" stroke-miterlimit="4"/></svg>